<mxfile host="app.diagrams.net" modified="2024-05-15T06:41:20.690Z" agent="Mozilla/5.0 (Windows NT 10.0; Win64; x64) AppleWebKit/537.36 (KHTML, like Gecko) Chrome/124.0.0.0 Safari/537.36" version="24.4.0" etag="VPwHWkKzwEEpBWXCneUT" type="github">
  <diagram name="Page-1" id="HnbHTnJ37qM8w-e63dx9">
    <mxGraphModel>
      <root>
        <mxCell id="0" />
        <mxCell id="1" parent="0" />
      </root>
    </mxGraphModel>
  </diagram>
</mxfile>
